inDegrees=no
DataType=double
version=3
OpenSimVersion=4.4-2022-10-11-798caa840
endheader
time	elv_angle	shoulder_elv	shoulder_rot	elbow_flexion	pro_sup	deviation	flexion
2.4020851434	0.7191570401	1.2877340317	0.4363323152	1.4808229208	0.0000000000	0.0000000000	0.0000000000
2.4062554301	0.7191570401	1.2877340317	0.4363323152	1.4808229208	0.0000000000	0.0000000000	0.0000000000
2.4104257168	0.7191570401	1.2877340317	0.4363323152	1.4808229208	0.0000000000	0.0000000000	0.0000000000
2.4145960035	0.7191570401	1.2877340317	0.4363323152	1.4808229208	0.0000000000	0.0000000000	0.0000000000
2.4187662902	0.7191570401	1.2877340317	0.4363323152	1.4808229208	0.0000000000	0.0000000000	0.0000000000
2.4229365769	0.7191570401	1.2877340317	0.4363323152	1.4808229208	0.0000000000	0.0000000000	0.0000000000
2.4271068636	0.7191570401	1.2877340317	0.4363323152	1.4808229208	0.0000000000	0.0000000000	0.0000000000
2.4312771503	0.7191570401	1.2877340317	0.4363323152	1.4808229208	0.0000000000	0.0000000000	0.0000000000
2.4354474370	0.7191570401	1.2877340317	0.4363323152	1.4808229208	0.0000000000	0.0000000000	0.0000000000
2.4396177237	0.7191570401	1.2877340317	0.4363323152	1.4808229208	0.0000000000	0.0000000000	0.0000000000
2.4437880104	0.7191570401	1.2877340317	0.4363323152	1.4808229208	0.0000000000	0.0000000000	0.0000000000
2.4479582971	0.7191570401	1.2877340317	0.4363323152	1.4808229208	0.0000000000	0.0000000000	0.0000000000
2.4521285838	0.7191570401	1.2877340317	0.4363323152	1.4808229208	0.0000000000	0.0000000000	0.0000000000
2.4562988705	0.7191570401	1.2877340317	0.4363323152	1.4808229208	0.0000000000	0.0000000000	0.0000000000
2.4604691573	0.7191570401	1.2877340317	0.4363323152	1.4808229208	0.0000000000	0.0000000000	0.0000000000
2.4646394440	0.7191570401	1.2877340317	0.4363323152	1.4808229208	0.0000000000	0.0000000000	0.0000000000
2.4688097307	0.7191570401	1.2877340317	0.4363323152	1.4808229208	0.0000000000	0.0000000000	0.0000000000
2.4729800174	0.7191570401	1.2877340317	0.4363323152	1.4808229208	0.0000000000	0.0000000000	0.0000000000
2.4771503041	0.7191570401	1.2877340317	0.4363323152	1.4808229208	0.0000000000	0.0000000000	0.0000000000
2.4813205908	0.7191570401	1.2877340317	0.4363323152	1.4808229208	0.0000000000	0.0000000000	0.0000000000
2.4854908775	0.7191570401	1.2877340317	0.4363323152	1.4808229208	0.0000000000	0.0000000000	0.0000000000
2.4896611642	0.7191570401	1.2877340317	0.4363323152	1.4808229208	0.0000000000	0.0000000000	0.0000000000
2.4938314509	0.7191570401	1.2877340317	0.4363323152	1.4808229208	0.0000000000	0.0000000000	0.0000000000
2.4980017376	0.7191570401	1.2877340317	0.4363323152	1.4808229208	0.0000000000	0.0000000000	0.0000000000
2.5021720243	0.7191570401	1.2877340317	0.4363323152	1.4808229208	0.0000000000	0.0000000000	0.0000000000
2.5063423110	0.7191570401	1.2877340317	0.4363323152	1.4808229208	0.0000000000	0.0000000000	0.0000000000
2.5105125977	0.7191570401	1.2877340317	0.4363323152	1.4808229208	0.0000000000	0.0000000000	0.0000000000
2.5146828844	0.7191570401	1.2877340317	0.4363323152	1.4808229208	0.0000000000	0.0000000000	0.0000000000
2.5188531712	0.7191570401	1.2877340317	0.4363323152	1.4808229208	0.0000000000	0.0000000000	0.0000000000
2.5230234579	0.7191570401	1.2877340317	0.4363323152	1.4808229208	0.0000000000	0.0000000000	0.0000000000
2.5271937446	0.7191570401	1.2877340317	0.4363323152	1.4808229208	0.0000000000	0.0000000000	0.0000000000
2.5313640313	0.7191570401	1.2877340317	0.4363323152	1.4808229208	0.0000000000	0.0000000000	0.0000000000
2.5355343180	0.7191570401	1.2877340317	0.4363323152	1.4808229208	0.0000000000	0.0000000000	0.0000000000
2.5397046047	0.7191570401	1.2877340317	0.4363323152	1.4808229208	0.0000000000	0.0000000000	0.0000000000
2.5438748914	0.7191570401	1.2877340317	0.4363323152	1.4808229208	0.0000000000	0.0000000000	0.0000000000
2.5480451781	0.7191570401	1.2877340317	0.4363323152	1.4808229208	0.0000000000	0.0000000000	0.0000000000
2.5522154648	0.7191570401	1.2877340317	0.4363323152	1.4808229208	0.0000000000	0.0000000000	0.0000000000
2.5563857515	0.7191570401	1.2877340317	0.4363323152	1.4808229208	0.0000000000	0.0000000000	0.0000000000
2.5605560382	0.7191570401	1.2877340317	0.4363323152	1.4808229208	0.0000000000	0.0000000000	0.0000000000
2.5647263249	0.7191570401	1.2877340317	0.4363323152	1.4808229208	0.0000000000	0.0000000000	0.0000000000
2.5688966116	0.7191570401	1.2877340317	0.4363323152	1.4808229208	0.0000000000	0.0000000000	0.0000000000
2.5730668983	0.7191570401	1.2877340317	0.4363323152	1.4808229208	0.0000000000	0.0000000000	0.0000000000
2.5772371851	0.7191570401	1.2877340317	0.4363323152	1.4808229208	0.0000000000	0.0000000000	0.0000000000
2.5814074718	0.7191570401	1.2877340317	0.4363323152	1.4808229208	0.0000000000	0.0000000000	0.0000000000
2.5855777585	0.7191570401	1.2877340317	0.4363323152	1.4808229208	0.0000000000	0.0000000000	0.0000000000
2.5897480452	0.7191570401	1.2877340317	0.4363323152	1.4808229208	0.0000000000	0.0000000000	0.0000000000
2.5939183319	0.7191570401	1.2877340317	0.4363323152	1.4808229208	0.0000000000	0.0000000000	0.0000000000
2.5980886186	0.7191570401	1.2877340317	0.4363323152	1.4808229208	0.0000000000	0.0000000000	0.0000000000
2.6022589053	0.7191570401	1.2877340317	0.4363323152	1.4808229208	0.0000000000	0.0000000000	0.0000000000
2.6064291920	0.7191570401	1.2877340317	0.4363323152	1.4808229208	0.0000000000	0.0000000000	0.0000000000
2.6105994787	0.7191570401	1.2877340317	0.4363323152	1.4808229208	0.0000000000	0.0000000000	0.0000000000
2.6147697654	0.7191570401	1.2877340317	0.4363323152	1.4808229208	0.0000000000	0.0000000000	0.0000000000
2.6189400521	0.7191570401	1.2877340317	0.4363323152	1.4808229208	0.0000000000	0.0000000000	0.0000000000
2.6231103388	0.7191570401	1.2877340317	0.4363323152	1.4808229208	0.0000000000	0.0000000000	0.0000000000
2.6272806255	0.7191570401	1.2877340317	0.4363323152	1.4808229208	0.0000000000	0.0000000000	0.0000000000
2.6314509123	0.7191570401	1.2877340317	0.4363323152	1.4808229208	0.0000000000	0.0000000000	0.0000000000
2.6356211990	0.7191570401	1.2877340317	0.4363323152	1.4808229208	0.0000000000	0.0000000000	0.0000000000
2.6397914857	0.7191570401	1.2877340317	0.4363323152	1.4808229208	0.0000000000	0.0000000000	0.0000000000
2.6439617724	0.7191570401	1.2877340317	0.4363323152	1.4808229208	0.0000000000	0.0000000000	0.0000000000
2.6481320591	0.7191570401	1.2877340317	0.4363323152	1.4808229208	0.0000000000	0.0000000000	0.0000000000
2.6523023458	0.7191570401	1.2877340317	0.4363323152	1.4808229208	0.0000000000	0.0000000000	0.0000000000
2.6564726325	0.7191572785	1.2877335548	0.4363323152	1.4808235168	0.0000000000	0.0000000000	0.0000000000
2.6606429192	0.7191594839	1.2877312899	0.4363323152	1.4808275700	0.0000000000	0.0000000000	0.0000000000
2.6648132059	0.7191652656	1.2877250910	0.4363323152	1.4808381796	0.0000000000	0.0000000000	0.0000000000
2.6689834926	0.7191764116	1.2877131701	0.4363323152	1.4808588028	0.0000000000	0.0000000000	0.0000000000
2.6731537793	0.7191943526	1.2876940966	0.4363323152	1.4808921814	0.0000000000	0.0000000000	0.0000000000
2.6773240660	0.7192208171	1.2876658440	0.4363323152	1.4809409380	0.0000000000	0.0000000000	0.0000000000
2.6814943527	0.7192569375	1.2876271009	0.4363323152	1.4810080528	0.0000000000	0.0000000000	0.0000000000
2.6856646394	0.7193042636	1.2875764370	0.4363323152	1.4810956717	0.0000000000	0.0000000000	0.0000000000
2.6898349262	0.7193639874	1.2875126600	0.4363323152	1.4812060595	0.0000000000	0.0000000000	0.0000000000
2.6940052129	0.7194371819	1.2874343395	0.4363323152	1.4813417196	0.0000000000	0.0000000000	0.0000000000
2.6981754996	0.7195251584	1.2873404026	0.4363323152	1.4815039635	0.0000000000	0.0000000000	0.0000000000
2.7023457863	0.7196288705	1.2872296572	0.4363323152	1.4816949368	0.0000000000	0.0000000000	0.0000000000
2.7065160730	0.7197490335	1.2871013880	0.4363323152	1.4819165468	0.0000000000	0.0000000000	0.0000000000
2.7106863597	0.7198868394	1.2869541645	0.4363323152	1.4821698666	0.0000000000	0.0000000000	0.0000000000
2.7148566464	0.7200429440	1.2867877483	0.4363323152	1.4824565649	0.0000000000	0.0000000000	0.0000000000
2.7190269331	0.7202181816	1.2866008282	0.4363323152	1.4827775955	0.0000000000	0.0000000000	0.0000000000
2.7231972198	0.7204131484	1.2863929272	0.4363323152	1.4831342697	0.0000000000	0.0000000000	0.0000000000
2.7273675065	0.7206286788	1.2861633301	0.4363323152	1.4835271835	0.0000000000	0.0000000000	0.0000000000
2.7315377932	0.7208651900	1.2859115601	0.4363323152	1.4839575291	0.0000000000	0.0000000000	0.0000000000
2.7357080799	0.7211232781	1.2856369019	0.4363323152	1.4844256639	0.0000000000	0.0000000000	0.0000000000
2.7398783666	0.7214033008	1.2853391171	0.4363323152	1.4849323034	0.0000000000	0.0000000000	0.0000000000
2.7440486533	0.7217059135	1.2850177288	0.4363323152	1.4854775667	0.0000000000	0.0000000000	0.0000000000
2.7482189401	0.7220314145	1.2846721411	0.4363323152	1.4860618114	0.0000000000	0.0000000000	0.0000000000
2.7523892268	0.7223799825	1.2843024731	0.4363323152	1.4866855145	0.0000000000	0.0000000000	0.0000000000
2.7565595135	0.7227520943	1.2839082479	0.4363323152	1.4873484373	0.0000000000	0.0000000000	0.0000000000
2.7607298002	0.7231479287	1.2834893465	0.4363323152	1.4880502224	0.0000000000	0.0000000000	0.0000000000
2.7649000869	0.7235675454	1.2830456495	0.4363323152	1.4887911081	0.0000000000	0.0000000000	0.0000000000
2.7690703736	0.7240113020	1.2825769186	0.4363323152	1.4895703793	0.0000000000	0.0000000000	0.0000000000
2.7732406603	0.7244790792	1.2820833921	0.4363323152	1.4903881550	0.0000000000	0.0000000000	0.0000000000
2.7774109470	0.7249711752	1.2815650702	0.4363323152	1.4912432432	0.0000000000	0.0000000000	0.0000000000
2.7815812337	0.7254873514	1.2810217142	0.4363323152	1.4921357632	0.0000000000	0.0000000000	0.0000000000
2.7857515204	0.7260278463	1.2804538012	0.4363323152	1.4930644035	0.0000000000	0.0000000000	0.0000000000
2.7899218071	0.7265924215	1.2798614502	0.4363323152	1.4940285683	0.0000000000	0.0000000000	0.0000000000
2.7940920938	0.7271810174	1.2792446613	0.4363323152	1.4950275421	0.0000000000	0.0000000000	0.0000000000
2.7982623805	0.7277933955	1.2786037922	0.4363323152	1.4960601330	0.0000000000	0.0000000000	0.0000000000
2.8024326672	0.7284296155	1.2779392004	0.4363323152	1.4971252680	0.0000000000	0.0000000000	0.0000000000
2.8066029540	0.7290890813	1.2772511244	0.4363323152	1.4982222319	0.0000000000	0.0000000000	0.0000000000
2.8107732407	0.7297718525	1.2765401602	0.4363323152	1.4993495941	0.0000000000	0.0000000000	0.0000000000
2.8149435274	0.7304774523	1.2758064270	0.4363323152	1.5005059242	0.0000000000	0.0000000000	0.0000000000
2.8191138141	0.7312055826	1.2750506401	0.4363323152	1.5016900301	0.0000000000	0.0000000000	0.0000000000
2.8232841008	0.7319558263	1.2742732763	0.4363323152	1.5029007196	0.0000000000	0.0000000000	0.0000000000
2.8274543875	0.7327277660	1.2734749317	0.4363323152	1.5041366816	0.0000000000	0.0000000000	0.0000000000
2.8316246742	0.7335206866	1.2726559639	0.4363323152	1.5053963661	0.0000000000	0.0000000000	0.0000000000
2.8357949609	0.7343345284	1.2718173265	0.4363323152	1.5066782236	0.0000000000	0.0000000000	0.0000000000
